<?xml version="1.0" encoding="UTF-8"?>
<svg version="1.1" xmlns="http://www.w3.org/2000/svg" width="200" height="200">
<path d="M0 0 C66 0 132 0 200 0 C200 66 200 132 200 200 C134 200 68 200 0 200 C0 134 0 68 0 0 Z " fill="#FEFEFE" transform="translate(0,0)"/>
<path d="M0 0 C3.52428175 0.82835682 6.16831447 1.64026206 9 4 C9.3125 7.6875 9.3125 7.6875 9 11 C9.53189941 10.87955322 10.06379883 10.75910645 10.61181641 10.63500977 C18.79997146 8.88257889 27.06920057 7.92405915 35.375 6.9375 C37.54942769 6.67769762 39.72369157 6.41672741 41.89761353 6.15272522 C43.85376871 5.91534853 45.81041671 5.68204337 47.76708984 5.44897461 C50.82893932 5.0860308 50.82893932 5.0860308 53.08740234 4.46337891 C55.61470866 3.85107007 58.04316875 3.78030755 60.640625 3.68359375 C62.24550781 3.62075195 62.24550781 3.62075195 63.8828125 3.55664062 C65.54957031 3.49766602 65.54957031 3.49766602 67.25 3.4375 C68.37664062 3.39431641 69.50328125 3.35113281 70.6640625 3.30664062 C73.44258954 3.20067985 76.22120391 3.09860858 79 3 C75.13808529 5.01105791 71.14670794 6.33290984 67 7.625 C66.2884375 7.85445312 65.576875 8.08390625 64.84375 8.3203125 C61.3718781 9.40851115 58.67251435 10 55 10 C55 10.66 55 11.32 55 12 C53.83984375 12.14695312 53.83984375 12.14695312 52.65625 12.296875 C46.87686269 13.12658902 42.22570395 14.12431483 37.14453125 16.98046875 C31.95972622 19.44537606 25.74060496 21 20 21 C20 21.99 20 22.98 20 24 C18.64455078 24.4021875 18.64455078 24.4021875 17.26171875 24.8125 C9.94265533 26.9846297 9.94265533 26.9846297 5.0625 32.375 C4.70702443 33.91636539 4.35310899 35.45809074 4 37 C3.09656985 39.45810595 2.16741824 41.8856167 1.1875 44.3125 C0.92928467 44.96130127 0.67106934 45.61010254 0.4050293 46.27856445 C-2.8830765 54.40098676 -7.14696159 61.72044239 -12 69 C-13.03124321 71.00158623 -14.01159766 73.02397154 -14.9921875 75.05078125 C-16.4379663 77.84707436 -18.25527631 80.38291447 -20 83 C-20.309375 83.78375 -20.61875 84.5675 -20.9375 85.375 C-22.47186319 89.16577965 -24.4924137 92.76103436 -27 96 C-27.66 96 -28.32 96 -29 96 C-29.0825 96.70125 -29.165 97.4025 -29.25 98.125 C-30 101 -30 101 -31.859375 103.7265625 C-34.06956636 107.10638068 -35.57859808 110.49761492 -37 114.25 C-37.25563721 114.90387695 -37.51127441 115.55775391 -37.7746582 116.23144531 C-38.92550739 119.17825637 -40.05061464 122.13406954 -41.16796875 125.09375 C-41.50441406 125.9703125 -41.84085938 126.846875 -42.1875 127.75 C-42.61095703 128.88695312 -42.61095703 128.88695312 -43.04296875 130.046875 C-44.07692072 132.15698105 -45.25440128 133.44617128 -47 135 C-51.46171382 121.61485853 -41.40270813 100.82286142 -36.01855469 88.45605469 C-33.89433675 83.33389927 -32.18249922 78.05531033 -30.43408203 72.79541016 C-28.89722312 68.25860266 -27.10195147 64.06685598 -24.89306641 59.81787109 C-23.65488855 57.29751235 -22.87111556 54.66736936 -22 52 C-20.682676 48.84900677 -19.27995108 45.73773615 -17.875 42.625 C-17.50246094 41.79355469 -17.12992188 40.96210937 -16.74609375 40.10546875 C-15.83326454 38.06915745 -14.91784402 36.03405461 -14 34 C-22.71172555 36.18403204 -31.12461509 38.65685471 -39.55859375 41.765625 C-44.11304589 43.39923099 -48.72296587 44.80937567 -53.35546875 46.203125 C-55.24604782 46.77281204 -57.12678104 47.37559368 -59 48 C-65.61371224 48.71658339 -71.63242266 48.26248788 -77 44 C-78.92205672 40.87510778 -79.2030452 38.65481354 -79 35 C-77.52853516 34.60554688 -77.52853516 34.60554688 -76.02734375 34.203125 C-72.54697314 33.2094805 -69.21660992 31.95959218 -65.84887695 30.63989258 C-54.71603719 26.30682254 -43.39095443 23.3962115 -31.77636719 20.66552734 C-29.22925078 20.05495406 -26.6959739 19.4087433 -24.1640625 18.73828125 C-23.07967896 18.45343872 -23.07967896 18.45343872 -21.97338867 18.1628418 C-20.09467259 17.66652191 -18.21719882 17.16550587 -16.33984375 16.6640625 C-12.81281431 15.96278179 -9.58675753 15.88120294 -6 16 C-5.88785156 15.29488281 -5.77570313 14.58976562 -5.66015625 13.86328125 C-4.93685092 10.72610488 -3.80542309 8.09872094 -2.4375 5.1875 C-1.98246094 4.21167969 -1.52742188 3.23585937 -1.05859375 2.23046875 C-0.53458984 1.12638672 -0.53458984 1.12638672 0 0 Z " fill="#F17E4C" transform="translate(93,40)"/>
<path d="M0 0 C-3.79652897 2.11577396 -7.87063006 3.33831227 -12 4.625 C-12.7115625 4.85445312 -13.423125 5.08390625 -14.15625 5.3203125 C-17.6281219 6.40851115 -20.32748565 7 -24 7 C-24 7.66 -24 8.32 -24 9 C-29.94 9.495 -29.94 9.495 -36 10 C-36 9.34 -36 8.68 -36 8 C-32.7 7.67 -29.4 7.34 -26 7 C-25.67 6.01 -25.34 5.02 -25 4 C-28.63 4 -32.26 4 -36 4 C-36 3.67 -36 3.34 -36 3 C-24.05636747 0.67008684 -12.1576932 -0.08105129 0 0 Z " fill="#E48A61" transform="translate(172,43)"/>
<path d="M0 0 C0.89203125 0.00902344 1.7840625 0.01804688 2.703125 0.02734375 C3.37859375 0.03894531 4.0540625 0.05054688 4.75 0.0625 C4.75 1.0525 4.75 2.0425 4.75 3.0625 C2.10261084 4.5231285 0.85551666 5.0625 -2.25 5.0625 C-2.25 5.7225 -2.25 6.3825 -2.25 7.0625 C-5.22 7.0625 -8.19 7.0625 -11.25 7.0625 C-8.58440687 5.28543791 -6.2219385 4.18701727 -3.25 3.0625 C-18.07459769 3.60519661 -18.07459769 3.60519661 -32.75 5.65234375 C-36.29820689 6.23447144 -39.66313483 6.20045635 -43.25 6.0625 C-43.25 5.7325 -43.25 5.4025 -43.25 5.0625 C-33.88638017 3.03414094 -24.7768987 1.70151272 -15.19189453 1.35375977 C-10.01056322 1.16252598 -5.17495843 -0.06809156 0 0 Z " fill="#FAE5D5" transform="translate(171.25,40.9375)"/>
<path d="M0 0 C-1.98 0.66 -3.96 1.32 -6 2 C-5.505 3.485 -5.505 3.485 -5 5 C-6.32 5.33 -7.64 5.66 -9 6 C-9 5.67 -9 5.34 -9 5 C-17.43516001 4.68758667 -24.75617117 6.05583025 -32.625 9.125 C-37.36582544 10.94580067 -40.95456818 11.38078731 -46 11 C-43.64632893 8.64632893 -42.3190666 8.40512214 -39.1171875 7.6328125 C-38.12170898 7.38861572 -37.12623047 7.14441895 -36.10058594 6.89282227 C-35.03614258 6.63944092 -33.97169922 6.38605957 -32.875 6.125 C-30.69002395 5.59538293 -28.50512831 5.06543399 -26.3203125 4.53515625 C-25.24555664 4.27621582 -24.17080078 4.01727539 -23.06347656 3.75048828 C-20.3645953 3.08931829 -17.67716659 2.39874141 -14.9921875 1.68359375 C-13.90188232 1.39621338 -13.90188232 1.39621338 -12.78955078 1.10302734 C-10.87410821 0.5953915 -8.96042582 0.0811272 -7.046875 -0.43359375 C-4.18355747 -0.96587714 -2.68352107 -1.01628397 0 0 Z " fill="#E68D65" transform="translate(84,57)"/>
<path d="M0 0 C0.99 0.33 1.98 0.66 3 1 C2.773125 1.598125 2.54625 2.19625 2.3125 2.8125 C2.209375 3.534375 2.10625 4.25625 2 5 C2.495 5.45375 2.99 5.9075 3.5 6.375 C3.995 6.91125 4.49 7.4475 5 8 C4.86446908 11.25274214 4.5593161 13.27045726 2.5625 15.875 C1 17 1 17 -1 17 C-1.28875 16.38125 -1.5775 15.7625 -1.875 15.125 C-2.93720042 12.86674235 -2.93720042 12.86674235 -5 11 C-3.35 7.37 -1.7 3.74 0 0 Z " fill="#F47A49" transform="translate(61,122)"/>
<path d="M0 0 C1.3269091 3.68880731 0.64836403 6.21489599 -0.375 9.9375 C-1.36962729 13.61390273 -2.29669186 17.25591845 -3 21 C-2.01 20.67 -1.02 20.34 0 20 C-1.55808656 29.59453303 -1.55808656 29.59453303 -6 33 C-7.17635464 29.47093607 -6.77300142 27.78618887 -6.07421875 24.16015625 C-5.85443359 23.01482422 -5.63464844 21.86949219 -5.40820312 20.68945312 C-5.05145508 18.89411133 -5.05145508 18.89411133 -4.6875 17.0625 C-4.46126953 15.86947266 -4.23503906 14.67644531 -4.00195312 13.44726562 C-2.10834929 3.7391353 -2.10834929 3.7391353 0 0 Z " fill="#E18A63" transform="translate(52,142)"/>
<path d="M0 0 C1.32 0 2.64 0 4 0 C4 0.66 4 1.32 4 2 C3.34 2 2.68 2 2 2 C2 2.66 2 3.32 2 4 C2.99 4.33 3.98 4.66 5 5 C5.81210937 6.25876953 5.81210937 6.25876953 6.640625 7.54296875 C9.24079297 10.25075957 9.58383791 10.36057846 13.109375 10.48828125 C14.65700607 10.45521221 16.20425916 10.39581107 17.75 10.3125 C18.54277344 10.28994141 19.33554687 10.26738281 20.15234375 10.24414062 C22.1023762 10.18540471 24.05143312 10.09572654 26 10 C20.81521056 13.45652629 16.07070132 13.65459556 10 13 C6.18429568 11.78275879 2.93710957 10.52355879 0.7890625 7.03125 C-0.16157482 4.58406483 -0.14460388 2.60286979 0 0 Z " fill="#E7895F" transform="translate(14,75)"/>
<path d="M0 0 C0.33 0.66 0.66 1.32 1 2 C1.66 2.33 2.32 2.66 3 3 C2.54625 3.556875 2.0925 4.11375 1.625 4.6875 C-0.07171449 6.91002845 -0.07171449 6.91002845 -0.9375 9.375 C-2.45772726 13.13085558 -4.2725001 17.13625005 -8 19 C-8.66 19.99 -9.32 20.98 -10 22 C-10.66 22 -11.32 22 -12 22 C-11.690625 21.236875 -11.38125 20.47375 -11.0625 19.6875 C-10.32106407 17.81210323 -9.63771783 15.91315348 -9 14 C-8 13 -7 12 -6 11 C-3.4563865 7.45435694 -1.45369981 4.11881611 0 0 Z " fill="#F9EFE6" transform="translate(73,122)"/>
<path d="M0 0 C0.66 0.66 1.32 1.32 2 2 C1.9765625 3.8828125 1.9765625 3.8828125 1.625 6.125 C1.17761784 9.27701068 0.98369442 12.19562448 1.125 15.375 C1 19 1 19 -0.375 21 C-2 22 -2 22 -4 22 C-3.25403037 14.5403037 -1.63253871 7.31048782 0 0 Z " fill="#F07D4A" transform="translate(53,141)"/>
<path d="M0 0 C-5.80394354 5.2992528 -14.53291021 6.49952096 -22 8 C-22.33 7.01 -22.66 6.02 -23 5 C-16.5942029 3.11594203 -16.5942029 3.11594203 -13.4375 2.5 C-10.87130295 2.03186212 -10.87130295 2.03186212 -8 0.9375 C-5.12368091 0.03865029 -2.98448875 -0.17555816 0 0 Z " fill="#E7885D" transform="translate(136,53)"/>
<path d="M0 0 C-0.99 2.97 -1.98 5.94 -3 9 C-3.66 9 -4.32 9 -5 9 C-5.33 8.67 -5.66 8.34 -6 8 C-6.33 8 -6.66 8 -7 8 C-7 6.35 -7 4.7 -7 3 C-7.763125 3.37125 -8.52625 3.7425 -9.3125 4.125 C-10.199375 4.41375 -11.08625 4.7025 -12 5 C-12.99 4.34 -13.98 3.68 -15 3 C-13.44033782 2.491217 -11.87710759 1.99336531 -10.3125 1.5 C-9.44238281 1.2215625 -8.57226562 0.943125 -7.67578125 0.65625 C-5.00608323 0.00149195 -2.73603316 -0.11831495 0 0 Z " fill="#FBEBE0" transform="translate(79,74)"/>
<path d="M0 0 C0.33 0.66 0.66 1.32 1 2 C1.66 2 2.32 2 3 2 C2.34 7.28 1.68 12.56 1 18 C1.66 18 2.32 18 3 18 C3.33 17.01 3.66 16.02 4 15 C4.5625 16.9375 4.5625 16.9375 5 19 C4 20 4 20 1.4375 20.0625 C0.633125 20.041875 -0.17125 20.02125 -1 20 C-2.125 16.25 -2.125 16.25 -1 14 C-0.84101146 12.08499697 -0.84101146 12.08499697 -0.875 10 C-0.87242188 9.29875 -0.86984375 8.5975 -0.8671875 7.875 C-0.88622764 5.90846225 -0.88622764 5.90846225 -2 4 C-1.0625 1.875 -1.0625 1.875 0 0 Z " fill="#FAECDF" transform="translate(45,156)"/>
<path d="M0 0 C0.33 0 0.66 0 1 0 C1.66 2.97 2.32 5.94 3 9 C3.99 9 4.98 9 6 9 C4.35 12.63 2.7 16.26 1 20 C-1.230869 15.538262 -1.230869 15.538262 -0.5625 11.5625 C-0.06279964 8.07034114 -0.16260146 5.45426897 -1 2 C-0.67 1.34 -0.34 0.68 0 0 Z " fill="#EA8660" transform="translate(54,136)"/>
<path d="M0 0 C-1.65 0.66 -3.3 1.32 -5 2 C-5 2.99 -5 3.98 -5 5 C-4.34 5 -3.68 5 -3 5 C-3 5.66 -3 6.32 -3 7 C-9.75 6.125 -9.75 6.125 -12 5 C-12 4.34 -12 3.68 -12 3 C-10.75823305 2.29773859 -9.50614401 1.61370891 -8.25 0.9375 C-7.20585937 0.36322266 -7.20585937 0.36322266 -6.140625 -0.22265625 C-3.63859372 -1.1312406 -2.4667645 -0.88336837 0 0 Z " fill="#ED7C4A" transform="translate(30,72)"/>
<path d="M0 0 C-0.68707031 0.26554687 -1.37414062 0.53109375 -2.08203125 0.8046875 C-3.43361328 1.33449219 -3.43361328 1.33449219 -4.8125 1.875 C-5.70582031 2.22304688 -6.59914062 2.57109375 -7.51953125 2.9296875 C-10.17711591 3.98832155 -10.17711591 3.98832155 -13 6 C-15.69921875 6.4140625 -15.69921875 6.4140625 -18.6875 6.625 C-20.17830078 6.73714844 -20.17830078 6.73714844 -21.69921875 6.8515625 C-22.45847656 6.90054688 -23.21773438 6.94953125 -24 7 C-21.41523065 5.27682043 -19.70004439 4.46709355 -16.8125 3.5625 C-13.70714521 2.57627169 -10.70143445 1.48605177 -7.6875 0.25 C-4.06346006 -0.97848812 -3.3741029 -1.10235591 0 0 Z " fill="#FAE0CD" transform="translate(144,53)"/>
<path d="M0 0 C0.66 0.33 1.32 0.66 2 1 C0.68 3.64 -0.64 6.28 -2 9 C-2.99 8.67 -3.98 8.34 -5 8 C-5 8.66 -5 9.32 -5 10 C-5.66 10 -6.32 10 -7 10 C-5.6561086 3.52488688 -5.6561086 3.52488688 -2.5 1 C-1.675 0.67 -0.85 0.34 0 0 Z " fill="#F9ECE3" transform="translate(104,66)"/>
<path d="M0 0 C5.61 0.33 11.22 0.66 17 1 C17 1.33 17 1.66 17 2 C15.25364835 2.53293835 13.50272348 3.05090663 11.75 3.5625 C10.77546875 3.85253906 9.8009375 4.14257812 8.796875 4.44140625 C6.03756068 4.99249836 4.6087176 4.93789609 2 4 C2 3.01 2 2.02 2 1 C1.34 0.67 0.68 0.34 0 0 Z " fill="#EB845A" transform="translate(62,72)"/>
<path d="M0 0 C0 0.33 0 0.66 0 1 C-2.56076097 1.67404284 -5.12326583 2.339414 -7.6875 3 C-8.7693457 3.28617188 -8.7693457 3.28617188 -9.87304688 3.578125 C-13.66850961 4.54865428 -17.04615439 5.24955239 -21 5 C-16.09047168 -0.79928103 -7.04761821 -0.2610229 0 0 Z " fill="#FCEEDE" transform="translate(69,59)"/>
<path d="M0 0 C-3.85838323 2.57225549 -6.52158002 3.15406171 -11.0625 3.1875 C-12.37927734 3.20876953 -12.37927734 3.20876953 -13.72265625 3.23046875 C-16 3 -16 3 -18 1 C-11.97968656 0.39034801 -6.05329744 -0.13451772 0 0 Z " fill="#E99E79" transform="translate(40,85)"/>
<path d="M0 0 C0.33 0.66 0.66 1.32 1 2 C-1.64738916 3.4606285 -2.89448334 4 -6 4 C-6 4.66 -6 5.32 -6 6 C-8.97 6 -11.94 6 -15 6 C-11.93024413 3.95349609 -9.30915848 3.00295435 -5.8125 1.875 C-4.72582031 1.52179687 -3.63914063 1.16859375 -2.51953125 0.8046875 C-1.68808594 0.53914063 -0.85664063 0.27359375 0 0 Z " fill="#FAEDE0" transform="translate(175,42)"/>
<path d="M0 0 C3.52593616 0.65295114 6.22945596 1.6912133 9 4 C9.3125 7.6875 9.3125 7.6875 9 11 C8.67 11 8.34 11 8 11 C8 9.02 8 7.04 8 5 C5.03 4.67 2.06 4.34 -1 4 C-0.67 2.68 -0.34 1.36 0 0 Z " fill="#E19371" transform="translate(93,40)"/>
<path d="M0 0 C0.33 0 0.66 0 1 0 C1.25 2.75 1.25 2.75 1 6 C-1 8.375 -1 8.375 -3 10 C-3.66 9.67 -4.32 9.34 -5 9 C-3.75471468 5.55151758 -2.38532951 2.80016942 0 0 Z " fill="#F6E7D9" transform="translate(86,100)"/>
<path d="M0 0 C1.32 0 2.64 0 4 0 C2.18690997 3.77727089 0.0926741 7.37269822 -2 11 C-3.13643966 7.59068103 -2.86747764 6.99664544 -1.5625 3.8125 C-1.13130859 2.73935547 -1.13130859 2.73935547 -0.69140625 1.64453125 C-0.46324219 1.10183594 -0.23507813 0.55914062 0 0 Z " fill="#E59673" transform="translate(68,125)"/>
<path d="M0 0 C0.33 0 0.66 0 1 0 C1 2.31 1 4.62 1 7 C1.66 7 2.32 7 3 7 C3.33 6.01 3.66 5.02 4 4 C4.5625 5.9375 4.5625 5.9375 5 8 C4 9 4 9 1.4375 9.0625 C0.633125 9.041875 -0.17125 9.02125 -1 9 C-2.0326802 6.21176345 -2.04509293 5.1322726 -1.0625 2.25 C-0.711875 1.5075 -0.36125 0.765 0 0 Z " fill="#FAE4D2" transform="translate(45,167)"/>
<path d="M0 0 C1.32 0 2.64 0 4 0 C3.39009109 3.55780196 2.4216319 6.6828589 1 10 C0.67 10 0.34 10 0 10 C-1.125 3.375 -1.125 3.375 0 0 Z " fill="#FCF0E5" transform="translate(53,128)"/>
<path d="M0 0 C0.99 0.495 0.99 0.495 2 1 C2 1.99 2 2.98 2 4 C4.64 4 7.28 4 10 4 C6.3558226 6.4294516 4.28758728 6.16179575 0 6 C0 4.02 0 2.04 0 0 Z " fill="#FDE7D6" transform="translate(102,45)"/>
<path d="M0 0 C0.33 0 0.66 0 1 0 C1.3227506 4.62609198 0.84450614 7.28026121 -2 11 C-2.66 11 -3.32 11 -4 11 C-3.52269162 9.5410574 -3.04308958 8.08286504 -2.5625 6.625 C-2.29566406 5.81289062 -2.02882813 5.00078125 -1.75390625 4.1640625 C-1 2 -1 2 0 0 Z " fill="#E08B5E" transform="translate(76,81)"/>
<path d="M0 0 C3.3 0 6.6 0 10 0 C5.78492722 3.16130459 4.93928888 3.3367697 0 3 C0 2.01 0 1.02 0 0 Z " fill="#FBF3E7" transform="translate(14,72)"/>
<path d="M0 0 C-0.66 0.66 -1.32 1.32 -2 2 C-5.625 1.625 -5.625 1.625 -9 1 C-9.33 1.66 -9.66 2.32 -10 3 C-10 2.01 -10 1.02 -10 0 C-6.30581799 -1.231394 -3.7943739 -0.64432764 0 0 Z " fill="#F6E5DC" transform="translate(123,61)"/>
<path d="M0 0 C0.33 1.32 0.66 2.64 1 4 C-0.98 4.33 -2.96 4.66 -5 5 C-5.33 4.01 -5.66 3.02 -6 2 C-4.02 1.34 -2.04 0.68 0 0 Z " fill="#EB8253" transform="translate(119,56)"/>
<path d="M0 0 C1.32 0 2.64 0 4 0 C4 0.66 4 1.32 4 2 C3.34 2 2.68 2 2 2 C2 2.66 2 3.32 2 4 C2.99 4.33 3.98 4.66 5 5 C4.01 5 3.02 5 2 5 C1.67 5.66 1.34 6.32 1 7 C0.67 4.69 0.34 2.38 0 0 Z " fill="#E59372" transform="translate(14,75)"/>
<path d="M0 0 C0.99 0 1.98 0 3 0 C2.25 4.75 2.25 4.75 0 7 C-0.93423645 3.98968256 -1.04449911 3.13349732 0 0 Z " fill="#FBF0E3" transform="translate(50,139)"/>
<path d="M0 0 C0.6875 1.75 0.6875 1.75 1 4 C-0.3125 6.25 -0.3125 6.25 -2 8 C-2.66 8 -3.32 8 -4 8 C-2.87548273 5.0280615 -1.77706209 2.66559313 0 0 Z " fill="#F7D9CC" transform="translate(78,114)"/>
<path d="M0 0 C-3.44450737 2.29633824 -5.93812283 2.54016485 -10 3 C-9 1 -9 1 -6.6875 -0.1875 C-3.88010429 -1.03624754 -2.698065 -0.99928333 0 0 Z " fill="#E3936E" transform="translate(30,72)"/>
</svg>
